solid OpenSCAD_Model
  facet normal 0 -1 0
    outer loop
      vertex 0.625 -2.45 0
      vertex 2.29999 -2.45 3.9949
      vertex 0.625 -2.45 3.9949
    endloop
  endfacet
  facet normal 0 -1 -0
    outer loop
      vertex 2.29999 -2.45 3.9949
      vertex 0.625 -2.45 0
      vertex 2.29999 -2.45 0
    endloop
  endfacet
  facet normal 0 -1 0
    outer loop
      vertex -2.29999 -2.45 0
      vertex -0.625 -2.45 3.9949
      vertex -2.29999 -2.45 3.9949
    endloop
  endfacet
  facet normal 0 -1 -0
    outer loop
      vertex -0.625 -2.45 3.9949
      vertex -2.29999 -2.45 0
      vertex -0.625 -2.45 0
    endloop
  endfacet
  facet normal 0.104518 -0.994523 0
    outer loop
      vertex 2.29999 -2.45 0
      vertex 2.5079 -2.42815 3.9949
      vertex 2.29999 -2.45 3.9949
    endloop
  endfacet
  facet normal 0.104518 -0.994523 0
    outer loop
      vertex 2.5079 -2.42815 3.9949
      vertex 2.29999 -2.45 0
      vertex 2.5079 -2.42815 0
    endloop
  endfacet
  facet normal 0.309044 -0.951048 0
    outer loop
      vertex 2.5079 -2.42815 0
      vertex 2.70673 -2.36354 3.9949
      vertex 2.5079 -2.42815 3.9949
    endloop
  endfacet
  facet normal 0.309044 -0.951048 0
    outer loop
      vertex 2.70673 -2.36354 3.9949
      vertex 2.5079 -2.42815 0
      vertex 2.70673 -2.36354 0
    endloop
  endfacet
  facet normal -0.104518 0.994523 0
    outer loop
      vertex -2.29999 2.45 0
      vertex -2.5079 2.42815 3.9949
      vertex -2.29999 2.45 3.9949
    endloop
  endfacet
  facet normal -0.104518 0.994523 0
    outer loop
      vertex -2.5079 2.42815 3.9949
      vertex -2.29999 2.45 0
      vertex -2.5079 2.42815 0
    endloop
  endfacet
  facet normal 0.156453 0.987685 -0
    outer loop
      vertex 2.60901 2.40105 0
      vertex 2.29999 2.45 3.9949
      vertex 2.60901 2.40105 3.9949
    endloop
  endfacet
  facet normal 0.156453 0.987685 0
    outer loop
      vertex 2.29999 2.45 3.9949
      vertex 2.60901 2.40105 0
      vertex 2.29999 2.45 0
    endloop
  endfacet
  facet normal -0.913563 0.406698 0
    outer loop
      vertex -3.25104 1.75902 0
      vertex -3.16602 1.95 3.9949
      vertex -3.16602 1.95 0
    endloop
  endfacet
  facet normal -0.913563 0.406698 0
    outer loop
      vertex -3.16602 1.95 3.9949
      vertex -3.25104 1.75902 0
      vertex -3.25104 1.75902 3.9949
    endloop
  endfacet
  facet normal -0.987685 0.156453 0
    outer loop
      vertex -3.29999 1.45 0
      vertex -3.25104 1.75902 3.9949
      vertex -3.25104 1.75902 0
    endloop
  endfacet
  facet normal -0.987685 0.156453 0
    outer loop
      vertex -3.25104 1.75902 3.9949
      vertex -3.29999 1.45 0
      vertex -3.29999 1.45 3.9949
    endloop
  endfacet
  facet normal -0.156453 -0.987685 0
    outer loop
      vertex -2.60901 -2.40105 0
      vertex -2.29999 -2.45 3.9949
      vertex -2.60901 -2.40105 3.9949
    endloop
  endfacet
  facet normal -0.156453 -0.987685 -0
    outer loop
      vertex -2.29999 -2.45 3.9949
      vertex -2.60901 -2.40105 0
      vertex -2.29999 -2.45 0
    endloop
  endfacet
  facet normal 0 1 -0
    outer loop
      vertex -0.625 2.45 0
      vertex -2.29999 2.45 3.9949
      vertex -0.625 2.45 3.9949
    endloop
  endfacet
  facet normal 0 1 0
    outer loop
      vertex -2.29999 2.45 3.9949
      vertex -0.625 2.45 0
      vertex -2.29999 2.45 0
    endloop
  endfacet
  facet normal 0 1 -0
    outer loop
      vertex 2.29999 2.45 0
      vertex 0.625 2.45 3.9949
      vertex 2.29999 2.45 3.9949
    endloop
  endfacet
  facet normal 0 1 0
    outer loop
      vertex 0.625 2.45 3.9949
      vertex 2.29999 2.45 0
      vertex 0.625 2.45 0
    endloop
  endfacet
  facet normal -0.994523 -0.104518 0
    outer loop
      vertex -3.27814 -1.65791 0
      vertex -3.29999 -1.45 3.9949
      vertex -3.29999 -1.45 0
    endloop
  endfacet
  facet normal -0.994523 -0.104518 0
    outer loop
      vertex -3.29999 -1.45 3.9949
      vertex -3.27814 -1.65791 0
      vertex -3.27814 -1.65791 3.9949
    endloop
  endfacet
  facet normal -0.587754 -0.80904 0
    outer loop
      vertex -2.96912 -2.19315 0
      vertex -2.79999 -2.31602 3.9949
      vertex -2.96912 -2.19315 3.9949
    endloop
  endfacet
  facet normal -0.587754 -0.80904 -0
    outer loop
      vertex -2.79999 -2.31602 3.9949
      vertex -2.96912 -2.19315 0
      vertex -2.79999 -2.31602 0
    endloop
  endfacet
  facet normal 1 -0 0
    outer loop
      vertex 3.29999 -1.45 3.9949
      vertex 3.29999 1.45 0
      vertex 3.29999 1.45 3.9949
    endloop
  endfacet
  facet normal 1 0 0
    outer loop
      vertex 3.29999 1.45 0
      vertex 3.29999 -1.45 3.9949
      vertex 3.29999 -1.45 0
    endloop
  endfacet
  facet normal 0.743159 0.669115 0
    outer loop
      vertex 3.10901 2.03778 3.9949
      vertex 2.96912 2.19315 0
      vertex 2.96912 2.19315 3.9949
    endloop
  endfacet
  facet normal 0.743159 0.669115 0
    outer loop
      vertex 2.96912 2.19315 0
      vertex 3.10901 2.03778 3.9949
      vertex 3.10901 2.03778 0
    endloop
  endfacet
  facet normal -0.669115 0.743159 0
    outer loop
      vertex -2.88777 2.25902 0
      vertex -3.04314 2.11913 3.9949
      vertex -2.88777 2.25902 3.9949
    endloop
  endfacet
  facet normal -0.669115 0.743159 0
    outer loop
      vertex -3.04314 2.11913 3.9949
      vertex -2.88777 2.25902 0
      vertex -3.04314 2.11913 0
    endloop
  endfacet
  facet normal -0.743159 -0.669115 0
    outer loop
      vertex -2.96912 -2.19315 0
      vertex -3.10901 -2.03778 3.9949
      vertex -3.10901 -2.03778 0
    endloop
  endfacet
  facet normal -0.743159 -0.669115 0
    outer loop
      vertex -3.10901 -2.03778 3.9949
      vertex -2.96912 -2.19315 0
      vertex -2.96912 -2.19315 3.9949
    endloop
  endfacet
  facet normal -1 0 0
    outer loop
      vertex -3.29999 -1.45 0
      vertex -3.29999 1.45 3.9949
      vertex -3.29999 1.45 0
    endloop
  endfacet
  facet normal -1 -0 0
    outer loop
      vertex -3.29999 1.45 3.9949
      vertex -3.29999 -1.45 0
      vertex -3.29999 -1.45 3.9949
    endloop
  endfacet
  facet normal -0.406738 -0.913545 0
    outer loop
      vertex -2.79999 -2.31602 0
      vertex -2.60901 -2.40105 3.9949
      vertex -2.79999 -2.31602 3.9949
    endloop
  endfacet
  facet normal -0.406738 -0.913545 -0
    outer loop
      vertex -2.60901 -2.40105 3.9949
      vertex -2.79999 -2.31602 0
      vertex -2.60901 -2.40105 0
    endloop
  endfacet
  facet normal 0.499987 -0.866033 0
    outer loop
      vertex 2.70673 -2.36354 0
      vertex 2.88777 -2.25902 3.9949
      vertex 2.70673 -2.36354 3.9949
    endloop
  endfacet
  facet normal 0.499987 -0.866033 0
    outer loop
      vertex 2.88777 -2.25902 3.9949
      vertex 2.70673 -2.36354 0
      vertex 2.88777 -2.25902 0
    endloop
  endfacet
  facet normal 0.406738 0.913545 -0
    outer loop
      vertex 2.79999 2.31602 0
      vertex 2.60901 2.40105 3.9949
      vertex 2.79999 2.31602 3.9949
    endloop
  endfacet
  facet normal 0.406738 0.913545 0
    outer loop
      vertex 2.60901 2.40105 3.9949
      vertex 2.79999 2.31602 0
      vertex 2.60901 2.40105 0
    endloop
  endfacet
  facet normal 0.587754 0.80904 -0
    outer loop
      vertex 2.96912 2.19315 0
      vertex 2.79999 2.31602 3.9949
      vertex 2.96912 2.19315 3.9949
    endloop
  endfacet
  facet normal 0.587754 0.80904 0
    outer loop
      vertex 2.79999 2.31602 3.9949
      vertex 2.96912 2.19315 0
      vertex 2.79999 2.31602 0
    endloop
  endfacet
  facet normal -0.866033 -0.499987 0
    outer loop
      vertex -3.10901 -2.03778 0
      vertex -3.21353 -1.85674 3.9949
      vertex -3.21353 -1.85674 0
    endloop
  endfacet
  facet normal -0.866033 -0.499987 0
    outer loop
      vertex -3.21353 -1.85674 3.9949
      vertex -3.10901 -2.03778 0
      vertex -3.10901 -2.03778 3.9949
    endloop
  endfacet
  facet normal 0.987685 -0.156453 0
    outer loop
      vertex 3.25104 -1.75902 3.9949
      vertex 3.29999 -1.45 0
      vertex 3.29999 -1.45 3.9949
    endloop
  endfacet
  facet normal 0.987685 -0.156453 0
    outer loop
      vertex 3.29999 -1.45 0
      vertex 3.25104 -1.75902 3.9949
      vertex 3.25104 -1.75902 0
    endloop
  endfacet
  facet normal 0.669115 -0.743159 0
    outer loop
      vertex 2.88777 -2.25902 0
      vertex 3.04314 -2.11913 3.9949
      vertex 2.88777 -2.25902 3.9949
    endloop
  endfacet
  facet normal 0.669115 -0.743159 0
    outer loop
      vertex 3.04314 -2.11913 3.9949
      vertex 2.88777 -2.25902 0
      vertex 3.04314 -2.11913 0
    endloop
  endfacet
  facet normal -0.809017 0.587785 0
    outer loop
      vertex -3.16602 1.95 0
      vertex -3.04314 2.11913 3.9949
      vertex -3.04314 2.11913 0
    endloop
  endfacet
  facet normal -0.809017 0.587785 0
    outer loop
      vertex -3.04314 2.11913 3.9949
      vertex -3.16602 1.95 0
      vertex -3.16602 1.95 3.9949
    endloop
  endfacet
  facet normal -0.499987 0.866033 0
    outer loop
      vertex -2.70673 2.36354 0
      vertex -2.88777 2.25902 3.9949
      vertex -2.70673 2.36354 3.9949
    endloop
  endfacet
  facet normal -0.499987 0.866033 0
    outer loop
      vertex -2.88777 2.25902 3.9949
      vertex -2.70673 2.36354 0
      vertex -2.88777 2.25902 0
    endloop
  endfacet
  facet normal -0.309044 0.951048 0
    outer loop
      vertex -2.5079 2.42815 0
      vertex -2.70673 2.36354 3.9949
      vertex -2.5079 2.42815 3.9949
    endloop
  endfacet
  facet normal -0.309044 0.951048 0
    outer loop
      vertex -2.70673 2.36354 3.9949
      vertex -2.5079 2.42815 0
      vertex -2.70673 2.36354 0
    endloop
  endfacet
  facet normal 0.866033 0.499987 0
    outer loop
      vertex 3.21353 1.85674 3.9949
      vertex 3.10901 2.03778 0
      vertex 3.10901 2.03778 3.9949
    endloop
  endfacet
  facet normal 0.866033 0.499987 0
    outer loop
      vertex 3.10901 2.03778 0
      vertex 3.21353 1.85674 3.9949
      vertex 3.21353 1.85674 0
    endloop
  endfacet
  facet normal 0.951048 0.309044 0
    outer loop
      vertex 3.27814 1.65791 3.9949
      vertex 3.21353 1.85674 0
      vertex 3.21353 1.85674 3.9949
    endloop
  endfacet
  facet normal 0.951048 0.309044 0
    outer loop
      vertex 3.21353 1.85674 0
      vertex 3.27814 1.65791 3.9949
      vertex 3.27814 1.65791 0
    endloop
  endfacet
  facet normal 0.994523 0.104518 0
    outer loop
      vertex 3.29999 1.45 3.9949
      vertex 3.27814 1.65791 0
      vertex 3.27814 1.65791 3.9949
    endloop
  endfacet
  facet normal 0.994523 0.104518 0
    outer loop
      vertex 3.27814 1.65791 0
      vertex 3.29999 1.45 3.9949
      vertex 3.29999 1.45 0
    endloop
  endfacet
  facet normal 0.809017 -0.587785 0
    outer loop
      vertex 3.04314 -2.11913 3.9949
      vertex 3.16602 -1.95 0
      vertex 3.16602 -1.95 3.9949
    endloop
  endfacet
  facet normal 0.809017 -0.587785 0
    outer loop
      vertex 3.16602 -1.95 0
      vertex 3.04314 -2.11913 3.9949
      vertex 3.04314 -2.11913 0
    endloop
  endfacet
  facet normal 0 0 -1
    outer loop
      vertex 2.16499 0.574997 0
      vertex 3.29999 1.45 0
      vertex 3.29999 -1.45 0
    endloop
  endfacet
  facet normal 0 0 -1
    outer loop
      vertex 2.16499 -0.574997 0
      vertex 3.29999 -1.45 0
      vertex 3.25104 -1.75902 0
    endloop
  endfacet
  facet normal 0 0 -1
    outer loop
      vertex 2.16499 0.574997 0
      vertex 3.29999 -1.45 0
      vertex 2.16499 -0.574997 0
    endloop
  endfacet
  facet normal 0 0 -1
    outer loop
      vertex 2.16499 -0.574997 0
      vertex 3.25104 -1.75902 0
      vertex 3.16602 -1.95 0
    endloop
  endfacet
  facet normal -0 0 -1
    outer loop
      vertex 3.29999 1.45 0
      vertex 2.16499 0.574997 0
      vertex 3.27814 1.65791 0
    endloop
  endfacet
  facet normal 0 0 -1
    outer loop
      vertex 2.16499 -0.574997 0
      vertex 3.16602 -1.95 0
      vertex 3.04314 -2.11913 0
    endloop
  endfacet
  facet normal -0 0 -1
    outer loop
      vertex 3.27814 1.65791 0
      vertex 2.16499 0.574997 0
      vertex 3.21353 1.85674 0
    endloop
  endfacet
  facet normal 0 0 -1
    outer loop
      vertex 2.16499 -0.574997 0
      vertex 3.04314 -2.11913 0
      vertex 2.88777 -2.25902 0
    endloop
  endfacet
  facet normal -0 0 -1
    outer loop
      vertex 3.21353 1.85674 0
      vertex 2.16499 0.574997 0
      vertex 3.10901 2.03778 0
    endloop
  endfacet
  facet normal 0 0 -1
    outer loop
      vertex 2.16499 -0.574997 0
      vertex 2.88777 -2.25902 0
      vertex 2.70673 -2.36354 0
    endloop
  endfacet
  facet normal -0 0 -1
    outer loop
      vertex 3.10901 2.03778 0
      vertex 2.16499 0.574997 0
      vertex 2.96912 2.19315 0
    endloop
  endfacet
  facet normal 0 0 -1
    outer loop
      vertex 2.16499 -0.574997 0
      vertex 2.70673 -2.36354 0
      vertex 2.5079 -2.42815 0
    endloop
  endfacet
  facet normal 0 0 -1
    outer loop
      vertex 2.16499 -0.574997 0
      vertex 2.5079 -2.42815 0
      vertex 2.29999 -2.45 0
    endloop
  endfacet
  facet normal -0 0 -1
    outer loop
      vertex 2.96912 2.19315 0
      vertex 2.16499 0.574997 0
      vertex 2.79999 2.31602 0
    endloop
  endfacet
  facet normal -0 0 -1
    outer loop
      vertex 2.79999 2.31602 0
      vertex 2.16499 0.574997 0
      vertex 2.60901 2.40105 0
    endloop
  endfacet
  facet normal 0 0 -1
    outer loop
      vertex 0.625 -2.45 0
      vertex 2.16499 -0.574997 0
      vertex 2.29999 -2.45 0
    endloop
  endfacet
  facet normal -0 0 -1
    outer loop
      vertex 2.16499 -0.574997 0
      vertex 0.625 -2.45 0
      vertex 0.625 -0.574997 0
    endloop
  endfacet
  facet normal -0 0 -1
    outer loop
      vertex 2.60901 2.40105 0
      vertex 2.16499 0.574997 0
      vertex 2.29999 2.45 0
    endloop
  endfacet
  facet normal 0 0 -1
    outer loop
      vertex 0.625 2.45 0
      vertex 2.16499 0.574997 0
      vertex 0.625 0.574997 0
    endloop
  endfacet
  facet normal 0 0 -1
    outer loop
      vertex 2.16499 0.574997 0
      vertex 0.625 2.45 0
      vertex 2.29999 2.45 0
    endloop
  endfacet
  facet normal 0 0 -1
    outer loop
      vertex -0.625 -2.45 0
      vertex -2.16499 -0.574997 0
      vertex -0.625 -0.574997 0
    endloop
  endfacet
  facet normal 0 0 -1
    outer loop
      vertex -2.60901 -2.40105 0
      vertex -2.16499 -0.574997 0
      vertex -2.29999 -2.45 0
    endloop
  endfacet
  facet normal 0 0 -1
    outer loop
      vertex -2.29999 -2.45 0
      vertex -2.16499 -0.574997 0
      vertex -0.625 -2.45 0
    endloop
  endfacet
  facet normal 0 0 -1
    outer loop
      vertex -2.16499 0.574997 0
      vertex -0.625 2.45 0
      vertex -0.625 0.574997 0
    endloop
  endfacet
  facet normal 0 0 -1
    outer loop
      vertex -2.16499 0.574997 0
      vertex -2.29999 2.45 0
      vertex -0.625 2.45 0
    endloop
  endfacet
  facet normal -0 0 -1
    outer loop
      vertex -2.16499 -0.574997 0
      vertex -3.29999 -1.45 0
      vertex -2.16499 0.574997 0
    endloop
  endfacet
  facet normal 0 -0 -1
    outer loop
      vertex -3.25104 1.75902 0
      vertex -2.16499 0.574997 0
      vertex -3.29999 1.45 0
    endloop
  endfacet
  facet normal 0 0 -1
    outer loop
      vertex -2.79999 -2.31602 0
      vertex -2.16499 -0.574997 0
      vertex -2.60901 -2.40105 0
    endloop
  endfacet
  facet normal -0 0 -1
    outer loop
      vertex -2.16499 0.574997 0
      vertex -3.29999 -1.45 0
      vertex -3.29999 1.45 0
    endloop
  endfacet
  facet normal 0 0 -1
    outer loop
      vertex -2.96912 -2.19315 0
      vertex -2.16499 -0.574997 0
      vertex -2.79999 -2.31602 0
    endloop
  endfacet
  facet normal 0 0 -1
    outer loop
      vertex -2.16499 0.574997 0
      vertex -2.5079 2.42815 0
      vertex -2.29999 2.45 0
    endloop
  endfacet
  facet normal 0 0 -1
    outer loop
      vertex -3.10901 -2.03778 0
      vertex -2.16499 -0.574997 0
      vertex -2.96912 -2.19315 0
    endloop
  endfacet
  facet normal 0 0 -1
    outer loop
      vertex -2.16499 0.574997 0
      vertex -2.70673 2.36354 0
      vertex -2.5079 2.42815 0
    endloop
  endfacet
  facet normal 0 0 -1
    outer loop
      vertex -3.21353 -1.85674 0
      vertex -2.16499 -0.574997 0
      vertex -3.10901 -2.03778 0
    endloop
  endfacet
  facet normal 0 0 -1
    outer loop
      vertex -2.16499 0.574997 0
      vertex -2.88777 2.25902 0
      vertex -2.70673 2.36354 0
    endloop
  endfacet
  facet normal 0 0 -1
    outer loop
      vertex -3.27814 -1.65791 0
      vertex -2.16499 -0.574997 0
      vertex -3.21353 -1.85674 0
    endloop
  endfacet
  facet normal 0 0 -1
    outer loop
      vertex -2.16499 0.574997 0
      vertex -3.04314 2.11913 0
      vertex -2.88777 2.25902 0
    endloop
  endfacet
  facet normal 0 0 -1
    outer loop
      vertex -2.16499 -0.574997 0
      vertex -3.27814 -1.65791 0
      vertex -3.29999 -1.45 0
    endloop
  endfacet
  facet normal 0 0 -1
    outer loop
      vertex -2.16499 0.574997 0
      vertex -3.16602 1.95 0
      vertex -3.04314 2.11913 0
    endloop
  endfacet
  facet normal 0 0 -1
    outer loop
      vertex -2.16499 0.574997 0
      vertex -3.25104 1.75902 0
      vertex -3.16602 1.95 0
    endloop
  endfacet
  facet normal -0.951048 -0.309044 0
    outer loop
      vertex -3.21353 -1.85674 0
      vertex -3.27814 -1.65791 3.9949
      vertex -3.27814 -1.65791 0
    endloop
  endfacet
  facet normal -0.951048 -0.309044 0
    outer loop
      vertex -3.27814 -1.65791 3.9949
      vertex -3.21353 -1.85674 0
      vertex -3.21353 -1.85674 3.9949
    endloop
  endfacet
  facet normal 0.913563 -0.406698 0
    outer loop
      vertex 3.16602 -1.95 3.9949
      vertex 3.25104 -1.75902 0
      vertex 3.25104 -1.75902 3.9949
    endloop
  endfacet
  facet normal 0.913563 -0.406698 0
    outer loop
      vertex 3.25104 -1.75902 0
      vertex 3.16602 -1.95 3.9949
      vertex 3.16602 -1.95 0
    endloop
  endfacet
  facet normal 0 1 -0
    outer loop
      vertex 2.16499 -0.574997 0
      vertex 0.625 -0.574997 3.9949
      vertex 2.16499 -0.574997 3.9949
    endloop
  endfacet
  facet normal 0 1 0
    outer loop
      vertex 0.625 -0.574997 3.9949
      vertex 2.16499 -0.574997 0
      vertex 0.625 -0.574997 0
    endloop
  endfacet
  facet normal -1 0 0
    outer loop
      vertex 2.16499 -0.574997 0
      vertex 2.16499 0.574997 3.9949
      vertex 2.16499 0.574997 0
    endloop
  endfacet
  facet normal -1 -0 0
    outer loop
      vertex 2.16499 0.574997 3.9949
      vertex 2.16499 -0.574997 0
      vertex 2.16499 -0.574997 3.9949
    endloop
  endfacet
  facet normal 0 -1 0
    outer loop
      vertex 0.625 0.574997 0
      vertex 2.16499 0.574997 3.9949
      vertex 0.625 0.574997 3.9949
    endloop
  endfacet
  facet normal 0 -1 -0
    outer loop
      vertex 2.16499 0.574997 3.9949
      vertex 0.625 0.574997 0
      vertex 2.16499 0.574997 0
    endloop
  endfacet
  facet normal -1 0 0
    outer loop
      vertex 0.625 0.574997 0
      vertex 0.625 2.45 3.9949
      vertex 0.625 2.45 0
    endloop
  endfacet
  facet normal -1 -0 0
    outer loop
      vertex 0.625 2.45 3.9949
      vertex 0.625 0.574997 0
      vertex 0.625 0.574997 3.9949
    endloop
  endfacet
  facet normal 1 -0 0
    outer loop
      vertex -0.625 0.574997 3.9949
      vertex -0.625 2.45 0
      vertex -0.625 2.45 3.9949
    endloop
  endfacet
  facet normal 1 0 0
    outer loop
      vertex -0.625 2.45 0
      vertex -0.625 0.574997 3.9949
      vertex -0.625 0.574997 0
    endloop
  endfacet
  facet normal 0 -1 0
    outer loop
      vertex -2.16499 0.574997 0
      vertex -0.625 0.574997 3.9949
      vertex -2.16499 0.574997 3.9949
    endloop
  endfacet
  facet normal 0 -1 -0
    outer loop
      vertex -0.625 0.574997 3.9949
      vertex -2.16499 0.574997 0
      vertex -0.625 0.574997 0
    endloop
  endfacet
  facet normal 1 -0 0
    outer loop
      vertex -2.16499 -0.574997 3.9949
      vertex -2.16499 0.574997 0
      vertex -2.16499 0.574997 3.9949
    endloop
  endfacet
  facet normal 1 0 0
    outer loop
      vertex -2.16499 0.574997 0
      vertex -2.16499 -0.574997 3.9949
      vertex -2.16499 -0.574997 0
    endloop
  endfacet
  facet normal 0 1 -0
    outer loop
      vertex -0.625 -0.574997 0
      vertex -2.16499 -0.574997 3.9949
      vertex -0.625 -0.574997 3.9949
    endloop
  endfacet
  facet normal 0 1 0
    outer loop
      vertex -2.16499 -0.574997 3.9949
      vertex -0.625 -0.574997 0
      vertex -2.16499 -0.574997 0
    endloop
  endfacet
  facet normal 1 -0 0
    outer loop
      vertex -0.625 -2.45 3.9949
      vertex -0.625 -0.574997 0
      vertex -0.625 -0.574997 3.9949
    endloop
  endfacet
  facet normal 1 0 0
    outer loop
      vertex -0.625 -0.574997 0
      vertex -0.625 -2.45 3.9949
      vertex -0.625 -2.45 0
    endloop
  endfacet
  facet normal -1 0 0
    outer loop
      vertex 0.625 -2.45 0
      vertex 0.625 -0.574997 3.9949
      vertex 0.625 -0.574997 0
    endloop
  endfacet
  facet normal -1 -0 0
    outer loop
      vertex 0.625 -0.574997 3.9949
      vertex 0.625 -2.45 0
      vertex 0.625 -2.45 3.9949
    endloop
  endfacet
  facet normal 0 0 1
    outer loop
      vertex -0.625 2.45 3.9949
      vertex -2.16499 0.574997 3.9949
      vertex -0.625 0.574997 3.9949
    endloop
  endfacet
  facet normal -0 0 1
    outer loop
      vertex -2.5079 2.42815 3.9949
      vertex -2.16499 0.574997 3.9949
      vertex -2.29999 2.45 3.9949
    endloop
  endfacet
  facet normal -0 0 1
    outer loop
      vertex -2.29999 2.45 3.9949
      vertex -2.16499 0.574997 3.9949
      vertex -0.625 2.45 3.9949
    endloop
  endfacet
  facet normal -0 0 1
    outer loop
      vertex -2.16499 -0.574997 3.9949
      vertex -0.625 -2.45 3.9949
      vertex -0.625 -0.574997 3.9949
    endloop
  endfacet
  facet normal 0 0 1
    outer loop
      vertex -2.16499 -0.574997 3.9949
      vertex -2.29999 -2.45 3.9949
      vertex -0.625 -2.45 3.9949
    endloop
  endfacet
  facet normal 0 0 1
    outer loop
      vertex -2.16499 0.574997 3.9949
      vertex -3.29999 1.45 3.9949
      vertex -2.16499 -0.574997 3.9949
    endloop
  endfacet
  facet normal -0 0 1
    outer loop
      vertex -2.70673 2.36354 3.9949
      vertex -2.16499 0.574997 3.9949
      vertex -2.5079 2.42815 3.9949
    endloop
  endfacet
  facet normal 0 0 1
    outer loop
      vertex -3.29999 -1.45 3.9949
      vertex -2.16499 -0.574997 3.9949
      vertex -3.29999 1.45 3.9949
    endloop
  endfacet
  facet normal -0 0 1
    outer loop
      vertex -2.88777 2.25902 3.9949
      vertex -2.16499 0.574997 3.9949
      vertex -2.70673 2.36354 3.9949
    endloop
  endfacet
  facet normal 0 -0 1
    outer loop
      vertex -3.27814 -1.65791 3.9949
      vertex -2.16499 -0.574997 3.9949
      vertex -3.29999 -1.45 3.9949
    endloop
  endfacet
  facet normal -0 0 1
    outer loop
      vertex -3.04314 2.11913 3.9949
      vertex -2.16499 0.574997 3.9949
      vertex -2.88777 2.25902 3.9949
    endloop
  endfacet
  facet normal 0 0 1
    outer loop
      vertex -2.16499 -0.574997 3.9949
      vertex -2.60901 -2.40105 3.9949
      vertex -2.29999 -2.45 3.9949
    endloop
  endfacet
  facet normal -0 0 1
    outer loop
      vertex -3.16602 1.95 3.9949
      vertex -2.16499 0.574997 3.9949
      vertex -3.04314 2.11913 3.9949
    endloop
  endfacet
  facet normal 0 0 1
    outer loop
      vertex -2.16499 -0.574997 3.9949
      vertex -2.79999 -2.31602 3.9949
      vertex -2.60901 -2.40105 3.9949
    endloop
  endfacet
  facet normal -0 0 1
    outer loop
      vertex -3.25104 1.75902 3.9949
      vertex -2.16499 0.574997 3.9949
      vertex -3.16602 1.95 3.9949
    endloop
  endfacet
  facet normal 0 0 1
    outer loop
      vertex -2.16499 -0.574997 3.9949
      vertex -2.96912 -2.19315 3.9949
      vertex -2.79999 -2.31602 3.9949
    endloop
  endfacet
  facet normal 0 0 1
    outer loop
      vertex -2.16499 0.574997 3.9949
      vertex -3.25104 1.75902 3.9949
      vertex -3.29999 1.45 3.9949
    endloop
  endfacet
  facet normal 0 0 1
    outer loop
      vertex -2.16499 -0.574997 3.9949
      vertex -3.10901 -2.03778 3.9949
      vertex -2.96912 -2.19315 3.9949
    endloop
  endfacet
  facet normal 0 0 1
    outer loop
      vertex -2.16499 -0.574997 3.9949
      vertex -3.21353 -1.85674 3.9949
      vertex -3.10901 -2.03778 3.9949
    endloop
  endfacet
  facet normal 0 0 1
    outer loop
      vertex -2.16499 -0.574997 3.9949
      vertex -3.27814 -1.65791 3.9949
      vertex -3.21353 -1.85674 3.9949
    endloop
  endfacet
  facet normal 0 0 1
    outer loop
      vertex 2.16499 0.574997 3.9949
      vertex 3.29999 1.45 3.9949
      vertex 3.27814 1.65791 3.9949
    endloop
  endfacet
  facet normal 0 0 1
    outer loop
      vertex 3.29999 1.45 3.9949
      vertex 2.16499 0.574997 3.9949
      vertex 3.29999 -1.45 3.9949
    endloop
  endfacet
  facet normal 0 0 1
    outer loop
      vertex 2.16499 0.574997 3.9949
      vertex 3.27814 1.65791 3.9949
      vertex 3.21353 1.85674 3.9949
    endloop
  endfacet
  facet normal 0 0 1
    outer loop
      vertex 3.29999 -1.45 3.9949
      vertex 2.16499 0.574997 3.9949
      vertex 2.16499 -0.574997 3.9949
    endloop
  endfacet
  facet normal 0 0 1
    outer loop
      vertex 2.16499 0.574997 3.9949
      vertex 3.21353 1.85674 3.9949
      vertex 3.10901 2.03778 3.9949
    endloop
  endfacet
  facet normal 0 0 1
    outer loop
      vertex 3.29999 -1.45 3.9949
      vertex 2.16499 -0.574997 3.9949
      vertex 3.25104 -1.75902 3.9949
    endloop
  endfacet
  facet normal 0 0 1
    outer loop
      vertex 2.16499 0.574997 3.9949
      vertex 3.10901 2.03778 3.9949
      vertex 2.96912 2.19315 3.9949
    endloop
  endfacet
  facet normal 0 0 1
    outer loop
      vertex 3.25104 -1.75902 3.9949
      vertex 2.16499 -0.574997 3.9949
      vertex 3.16602 -1.95 3.9949
    endloop
  endfacet
  facet normal 0 0 1
    outer loop
      vertex 2.16499 0.574997 3.9949
      vertex 2.96912 2.19315 3.9949
      vertex 2.79999 2.31602 3.9949
    endloop
  endfacet
  facet normal 0 0 1
    outer loop
      vertex 3.16602 -1.95 3.9949
      vertex 2.16499 -0.574997 3.9949
      vertex 3.04314 -2.11913 3.9949
    endloop
  endfacet
  facet normal 0 0 1
    outer loop
      vertex 2.16499 0.574997 3.9949
      vertex 2.79999 2.31602 3.9949
      vertex 2.60901 2.40105 3.9949
    endloop
  endfacet
  facet normal 0 0 1
    outer loop
      vertex 3.04314 -2.11913 3.9949
      vertex 2.16499 -0.574997 3.9949
      vertex 2.88777 -2.25902 3.9949
    endloop
  endfacet
  facet normal 0 0 1
    outer loop
      vertex 2.16499 0.574997 3.9949
      vertex 2.60901 2.40105 3.9949
      vertex 2.29999 2.45 3.9949
    endloop
  endfacet
  facet normal 0 0 1
    outer loop
      vertex 2.88777 -2.25902 3.9949
      vertex 2.16499 -0.574997 3.9949
      vertex 2.70673 -2.36354 3.9949
    endloop
  endfacet
  facet normal 0 0 1
    outer loop
      vertex 2.70673 -2.36354 3.9949
      vertex 2.16499 -0.574997 3.9949
      vertex 2.5079 -2.42815 3.9949
    endloop
  endfacet
  facet normal -0 0 1
    outer loop
      vertex 0.625 2.45 3.9949
      vertex 2.16499 0.574997 3.9949
      vertex 2.29999 2.45 3.9949
    endloop
  endfacet
  facet normal 0 0 1
    outer loop
      vertex 2.16499 0.574997 3.9949
      vertex 0.625 2.45 3.9949
      vertex 0.625 0.574997 3.9949
    endloop
  endfacet
  facet normal 0 0 1
    outer loop
      vertex 2.5079 -2.42815 3.9949
      vertex 2.16499 -0.574997 3.9949
      vertex 2.29999 -2.45 3.9949
    endloop
  endfacet
  facet normal 0 0 1
    outer loop
      vertex 0.625 -2.45 3.9949
      vertex 2.16499 -0.574997 3.9949
      vertex 0.625 -0.574997 3.9949
    endloop
  endfacet
  facet normal 0 0 1
    outer loop
      vertex 2.16499 -0.574997 3.9949
      vertex 0.625 -2.45 3.9949
      vertex 2.29999 -2.45 3.9949
    endloop
  endfacet
endsolid OpenSCAD_Model
